<svg width="517" height="476" viewBox="0 0 517 476" fill="none" xmlns="http://www.w3.org/2000/svg">
<rect width="517" height="476" fill="none"></rect>
<path d="M121 354.833C176.689 354.833 221.833 309.689 221.833 254C221.833 198.311 176.689 153.167 121 153.167C65.3113 153.167 20.1667 198.311 20.1667 254C20.1667 309.689 65.3113 354.833 121 354.833Z" stroke="#1E1E1E" stroke-width="4" stroke-linecap="round" stroke-linejoin="round" data-index="0" style="opacity: 1;"></path>
<path d="M190 455.833C245.689 455.833 290.833 410.689 290.833 355C290.833 299.311 245.689 254.167 190 254.167C134.311 254.167 89.1667 299.311 89.1667 355C89.1667 410.689 134.311 455.833 190 455.833Z" stroke="#1E1E1E" stroke-width="4" stroke-linecap="round" stroke-linejoin="round" data-index="1" style="opacity: 1;"></path>
<path d="M295.167 254C295.167 198.311 340.311 153.167 396 153.167C451.689 153.167 496.833 198.311 496.833 254C496.833 309.689 451.689 354.833 396 354.833C340.311 354.833 295.167 309.689 295.167 254Z" stroke="#1E1E1E" stroke-width="4" stroke-linecap="round" stroke-linejoin="round" data-index="2" style="opacity: 1;"></path>
<path d="M226.167 355C226.167 299.311 271.311 254.167 327 254.167C382.689 254.167 427.833 299.311 427.833 355C427.833 410.689 382.689 455.833 327 455.833C271.311 455.833 226.167 410.689 226.167 355Z" stroke="#1E1E1E" stroke-width="4" stroke-linecap="round" stroke-linejoin="round" data-index="3" style="opacity: 1;"></path>
<path d="M285.833 121C285.833 176.689 240.689 221.833 185 221.833C129.311 221.833 84.1667 176.689 84.1667 121C84.1667 65.3113 129.311 20.1667 185 20.1667C240.689 20.1667 285.833 65.3113 285.833 121Z" stroke="#1E1E1E" stroke-width="4" stroke-linecap="round" stroke-linejoin="round" data-index="4" style="opacity: 1;"></path>
<path d="M427.833 121C427.833 176.689 382.689 221.833 327 221.833C271.311 221.833 226.167 176.689 226.167 121C226.167 65.3113 271.311 20.1667 327 20.1667C382.689 20.1667 427.833 65.3113 427.833 121Z" stroke="#1E1E1E" stroke-width="4" stroke-linecap="round" stroke-linejoin="round" data-index="5" style="opacity: 1;"></path>
</svg>